<?xml version="1.0" standalone="no"?>
<!DOCTYPE svg PUBLIC "-//W3C//DTD SVG 20010904//EN"
 "http://www.w3.org/TR/2001/REC-SVG-20010904/DTD/svg10.dtd">
<svg version="1.0" xmlns="http://www.w3.org/2000/svg"
 width="512.000000pt" height="512.000000pt" viewBox="0 0 512.000000 512.000000"
 preserveAspectRatio="xMidYMid meet">
<metadata>
Created by potrace 1.11, written by Peter Selinger 2001-2013
</metadata>
<g transform="translate(0.000000,512.000000) scale(0.100000,-0.100000)"
fill="#000000" stroke="none">
<path d="M2220 4366 c-14 -8 -50 -17 -80 -21 -30 -4 -62 -13 -70 -20 -8 -7
-29 -16 -47 -20 -17 -3 -37 -12 -43 -20 -6 -8 -24 -17 -40 -20 -16 -3 -34 -12
-40 -20 -6 -7 -23 -16 -38 -20 -15 -4 -35 -15 -45 -26 -10 -10 -24 -19 -31
-19 -7 0 -21 -9 -31 -20 -10 -11 -24 -20 -32 -20 -7 0 -13 -4 -13 -8 0 -5 -24
-24 -52 -42 -115 -74 -291 -281 -391 -459 -139 -249 -195 -408 -256 -731 -24
-126 -34 -390 -23 -590 11 -191 18 -242 48 -405 51 -268 149 -536 272 -740
114 -190 301 -389 487 -517 68 -46 211 -128 225 -128 7 0 24 -7 38 -15 39 -21
138 -55 210 -70 34 -8 67 -17 74 -21 6 -4 70 -11 142 -15 152 -9 369 4 420 25
19 8 57 18 83 21 26 4 58 13 70 21 12 8 28 14 35 14 7 0 36 11 63 25 28 13 53
25 57 25 17 1 156 87 221 136 96 75 134 110 182 170 22 27 52 62 67 77 16 16
28 35 28 42 0 8 6 18 13 22 7 4 21 25 31 45 9 21 21 38 25 38 4 0 13 11 19 25
9 19 9 25 -1 25 -8 0 -7 4 3 10 8 5 12 10 8 10 -5 0 0 8 10 18 11 12 20 14 24
8 5 -7 8 -6 8 2 0 7 22 40 50 73 27 33 50 64 50 70 0 21 -35 21 -103 1 -182
-51 -209 -55 -402 -60 -179 -4 -196 -2 -296 22 -235 58 -408 155 -560 314
-109 114 -154 173 -231 308 -213 371 -265 791 -143 1160 44 134 138 293 226
385 99 103 185 156 302 184 64 16 72 16 135 -1 103 -27 194 -80 246 -140 90
-106 118 -188 121 -351 1 -62 5 -116 9 -120 3 -4 26 -1 49 6 23 7 59 15 80 18
29 4 41 12 53 34 11 23 19 27 31 21 17 -10 73 15 73 33 0 6 11 20 24 32 18 17
23 34 25 78 1 50 0 55 -19 55 -16 0 -20 -5 -16 -17 16 -52 5 -123 -19 -123 -7
0 -15 -5 -17 -11 -3 -9 -9 -9 -23 -1 -11 6 -28 13 -38 16 -20 6 -19 3 -21 198
-2 95 -6 141 -15 152 -13 15 -26 57 -39 126 -4 19 -12 34 -17 32 -6 -1 -13 17
-17 40 -10 65 -13 77 -26 90 -9 9 -12 8 -12 -5 0 -25 -25 -20 -40 8 -7 14 -16
25 -19 25 -7 0 -101 88 -101 95 0 2 8 6 18 8 9 3 -9 5 -41 6 -42 1 -58 5 -55
14 3 6 14 13 26 15 21 3 27 20 23 65 -1 9 3 17 8 17 6 0 11 11 11 24 0 20 -4
23 -31 21 -41 -3 -62 -24 -31 -31 27 -8 30 -53 5 -74 -24 -20 -125 -27 -122
-8 3 28 -2 38 -21 38 -11 0 -20 -4 -20 -10 0 -12 -43 -14 -54 -3 -4 5 -75 9
-157 9 -122 2 -149 0 -149 -12 0 -8 -8 -14 -17 -14 -10 0 -27 -7 -37 -15 -11
-8 -27 -15 -37 -15 -9 0 -19 -6 -22 -14 -3 -8 -19 -17 -36 -21 -17 -4 -33 -11
-36 -16 -4 -5 -17 -9 -31 -9 -14 0 -24 -6 -24 -14 0 -25 -48 -68 -74 -68 -28
0 -61 -41 -52 -64 3 -8 0 -17 -7 -20 -8 -3 -31 -28 -53 -57 -21 -29 -42 -53
-46 -55 -5 -2 -8 -9 -8 -17 0 -7 -7 -18 -15 -25 -8 -7 -15 -21 -15 -32 0 -10
-11 -30 -25 -44 -14 -14 -25 -32 -25 -40 0 -8 -4 -12 -10 -9 -5 3 -10 -3 -10
-14 0 -11 -8 -27 -17 -36 -9 -10 -17 -31 -18 -48 -1 -17 -7 -33 -13 -35 -7 -2
-12 -17 -12 -32 0 -16 -4 -32 -10 -35 -5 -3 -10 -17 -10 -29 0 -13 -7 -41 -17
-62 -9 -22 -17 -61 -19 -87 -1 -26 -13 -69 -25 -94 l-23 -47 -8 29 c-4 16 -6
41 -3 54 2 14 0 44 -6 69 -6 30 -6 85 2 171 12 133 5 181 -26 181 -8 0 -15 9
-15 19 0 11 -4 23 -10 26 -5 3 -10 18 -10 33 0 30 35 132 48 141 4 3 13 22 19
41 40 126 54 155 96 201 9 10 17 24 17 29 0 6 4 10 9 10 5 0 11 10 13 23 2 13
10 22 21 22 22 0 37 22 37 55 0 17 10 32 30 45 18 12 30 29 30 43 0 12 5 22
10 22 6 0 10 7 10 15 0 8 7 15 15 15 8 0 15 4 15 10 0 17 59 70 79 70 10 0 21
7 25 15 3 8 12 15 19 15 10 0 13 8 9 25 -3 20 0 25 17 25 11 0 21 5 21 11 0 7
10 9 25 7 14 -3 30 1 36 8 25 30 -72 46 -121 20z m-474 -938 c-1 -18 -6 -42
-13 -53 -11 -19 -13 -19 -29 -3 -15 14 -16 22 -6 43 6 14 18 25 27 25 8 0 15
5 15 10 0 6 2 10 4 10 2 0 3 -15 2 -32z m-70 -160 c-19 -27 -20 -17 -3 31 10
28 13 31 15 13 2 -12 -4 -32 -12 -44z m1764 -138 c0 -5 9 -10 20 -12 23 -3 23
-24 0 -21 -8 1 -17 -2 -20 -6 -8 -13 -50 -23 -50 -13 0 28 23 70 36 65 8 -3
14 -9 14 -13z m326 -2058 c-4 -13 -17 -22 -33 -24 -15 -2 -28 -9 -29 -16 -1
-7 0 -8 3 -2 9 18 20 11 18 -12 -1 -12 -8 -24 -16 -26 -8 -2 -27 -19 -44 -37
-16 -19 -41 -35 -54 -37 -22 -3 -24 1 -25 29 0 36 46 92 77 93 9 0 17 5 17 10
0 5 3 9 8 8 4 -2 20 10 35 26 31 31 54 24 43 -12z m-203 -186 c-9 -17 -18 -25
-20 -18 -3 6 -9 12 -14 12 -6 0 -7 -4 -4 -10 3 -6 -1 -7 -10 -4 -9 4 -33 0
-53 -8 -75 -31 -110 -38 -181 -38 -66 0 -72 2 -60 16 9 11 23 14 46 11 44 -7
142 21 122 34 -10 7 -3 8 20 4 23 -5 31 -4 27 4 -4 6 0 11 8 11 9 0 16 7 16
16 0 12 7 15 24 12 13 -3 35 1 47 8 20 11 26 11 36 -3 10 -12 9 -22 -4 -47z"/>
<path d="M3608 953 c7 -3 16 -2 19 1 4 3 -2 6 -13 5 -11 0 -14 -3 -6 -6z"/>
<path d="M3496 901 c-4 -7 -5 -15 -2 -18 9 -9 19 4 14 18 -4 11 -6 11 -12 0z"/>
<path d="M2408 4373 c-36 -6 -36 -19 -1 -30 19 -7 42 -5 74 5 45 14 48 14 70
-7 25 -23 42 -23 131 0 73 19 51 29 -64 29 -62 0 -129 2 -148 4 -19 2 -47 2
-62 -1z"/>
<path d="M2740 4355 c0 -3 20 -14 45 -25 25 -11 45 -24 45 -30 0 -6 11 -15 25
-20 14 -5 25 -16 25 -25 0 -8 6 -15 14 -15 10 0 12 7 8 22 -5 20 -3 21 36 14
l41 -6 -23 23 c-13 13 -25 29 -28 37 -4 12 -11 12 -48 1 -32 -9 -45 -10 -48
-2 -2 6 -10 11 -18 11 -8 0 -14 5 -14 10 0 6 -13 10 -30 10 -16 0 -30 -2 -30
-5z m145 -53 c-3 -3 -11 0 -18 7 -9 10 -8 11 6 5 10 -3 15 -9 12 -12z"/>
<path d="M3003 4283 c-23 -9 -14 -23 15 -23 l27 -1 -30 -13 c-26 -12 -28 -15
-11 -21 11 -5 21 -3 27 6 5 9 7 -1 3 -26 -4 -32 -3 -36 5 -17 12 26 52 30 75
6 21 -20 19 -7 -3 31 -10 17 -27 31 -39 33 -11 2 -26 10 -32 18 -13 15 -17 16
-37 7z"/>
<path d="M2445 4263 c-18 -17 -18 -18 1 -21 10 -2 24 -10 30 -18 10 -12 13
-12 24 1 7 8 23 15 36 15 15 0 24 6 24 15 0 10 -10 15 -34 15 -19 0 -41 3 -49
6 -8 3 -23 -3 -32 -13z"/>
<path d="M2770 4231 c0 -5 7 -11 15 -15 9 -3 15 0 15 9 0 8 -7 15 -15 15 -8 0
-15 -4 -15 -9z"/>
<path d="M3156 4202 c-3 -6 -1 -14 5 -17 14 -9 20 -2 10 14 -6 8 -11 9 -15 3z"/>
<path d="M2910 4170 c0 -5 9 -10 21 -10 11 0 17 5 14 10 -3 6 -13 10 -21 10
-8 0 -14 -4 -14 -10z"/>
<path d="M3160 4155 c0 -18 16 -20 23 -2 3 8 9 6 19 -7 14 -18 15 -18 21 3 4
18 1 21 -29 21 -24 0 -34 -5 -34 -15z"/>
<path d="M2720 4150 c0 -5 4 -10 9 -10 6 0 13 5 16 10 3 6 -1 10 -9 10 -9 0
-16 -4 -16 -10z"/>
<path d="M2499 4127 c-8 -7 -18 -20 -22 -29 -5 -14 -1 -18 18 -18 34 0 68 30
53 47 -13 16 -28 16 -49 0z"/>
<path d="M3235 4130 c3 -5 13 -10 21 -10 8 0 12 5 9 10 -3 6 -13 10 -21 10 -8
0 -12 -4 -9 -10z"/>
<path d="M3250 4095 c7 -8 16 -12 21 -9 5 3 9 2 8 -3 -5 -27 2 -33 21 -23 16
9 22 7 27 -7 4 -10 11 -21 17 -25 6 -4 5 -12 -3 -22 -16 -20 1 -45 27 -42 18
3 30 36 13 36 -6 0 -11 11 -11 25 0 14 -4 25 -10 25 -5 0 -18 10 -30 22 -11
12 -23 19 -26 15 -4 -3 -13 0 -21 8 -8 8 -21 15 -30 15 -13 0 -13 -3 -3 -15z"/>
<path d="M2780 4058 c-9 -8 -22 -17 -30 -20 -10 -4 -6 -8 13 -13 33 -9 40 -4
35 26 -3 20 -5 21 -18 7z"/>
<path d="M2660 4040 c0 -10 7 -21 16 -24 8 -3 12 -2 9 4 -3 6 -1 10 4 10 19 0
12 17 -9 23 -15 4 -20 0 -20 -13z"/>
<path d="M2560 4026 c0 -11 11 -14 40 -13 54 3 54 27 0 27 -28 0 -40 -4 -40
-14z"/>
<path d="M2370 4026 c0 -2 7 -6 15 -10 8 -3 15 -1 15 4 0 6 -7 10 -15 10 -8 0
-15 -2 -15 -4z"/>
<path d="M3410 3941 c0 -10 -9 -21 -20 -24 -21 -5 -37 -33 -25 -45 4 -4 17 5
30 21 34 39 55 33 60 -17 4 -36 5 -37 15 -31 6 3 11 -4 11 -17 1 -17 3 -18 6
-5 2 9 9 17 14 17 11 0 -11 42 -28 53 -7 4 -13 16 -13 25 0 21 -19 42 -37 42
-7 0 -13 -8 -13 -19z"/>
<path d="M2320 3930 c0 -8 50 -24 56 -18 2 2 -10 9 -26 15 -17 6 -30 8 -30 3z"/>
<path d="M3424 3843 c-3 -12 -14 -23 -25 -26 -23 -6 -26 -45 -4 -54 21 -8 26
-1 35 49 9 45 3 68 -6 31z"/>
<path d="M3440 3786 c0 -16 6 -26 15 -26 8 0 15 5 15 11 0 6 -7 17 -15 25 -13
14 -15 13 -15 -10z"/>
<path d="M3512 3798 c-15 -15 -16 -38 -2 -38 6 0 10 -6 10 -14 0 -7 7 -19 15
-26 8 -7 15 -22 15 -34 0 -13 11 -33 25 -46 25 -23 25 -23 25 -2 0 11 -4 23
-9 27 -5 3 -13 20 -16 37 -4 18 -14 38 -21 46 -8 7 -14 22 -14 32 0 24 -14 32
-28 18z"/>
<path d="M2161 3774 c0 -11 3 -14 6 -6 3 7 2 16 -1 19 -3 4 -6 -2 -5 -13z"/>
<path d="M1840 3656 c0 -13 -3 -31 -6 -40 -4 -10 -1 -16 9 -16 8 0 17 13 21
31 9 45 8 49 -9 49 -9 0 -15 -9 -15 -24z"/>
<path d="M2012 3668 c-19 -25 -19 -75 0 -87 14 -9 18 -8 18 3 0 8 4 16 8 18 5
2 12 20 15 41 5 31 3 37 -12 37 -10 0 -23 -6 -29 -12z"/>
<path d="M1920 3579 c0 -11 -8 -28 -17 -37 -16 -16 -16 -17 0 -20 9 -2 17 -9
17 -17 0 -7 7 -16 16 -19 14 -5 16 -1 10 25 -3 17 -6 44 -6 60 0 16 -4 29 -10
29 -5 0 -10 -9 -10 -21z"/>
<path d="M3486 3539 c-9 -93 -8 -99 14 -99 21 0 22 5 22 110 1 32 -4 46 -14
48 -12 2 -17 -12 -22 -59z"/>
<path d="M3608 3579 c-2 -8 -2 -25 2 -39 l6 -25 7 24 c7 28 -6 64 -15 40z"/>
<path d="M2005 3550 c-3 -5 -1 -10 4 -10 6 0 11 5 11 10 0 6 -2 10 -4 10 -3 0
-8 -4 -11 -10z"/>
<path d="M3610 3496 c0 -9 5 -16 10 -16 6 0 10 4 10 9 0 6 -4 13 -10 16 -5 3
-10 -1 -10 -9z"/>
<path d="M1800 3465 c0 -14 5 -25 10 -25 6 0 10 11 10 25 0 14 -4 25 -10 25
-5 0 -10 -11 -10 -25z"/>
<path d="M3599 3454 c-4 -45 4 -110 13 -115 7 -4 6 -9 -1 -13 -13 -9 -15 -62
-2 -70 21 -14 30 81 9 102 -10 10 -10 17 0 32 16 27 15 55 -3 70 -12 10 -15 9
-16 -6z"/>
<path d="M3545 3397 c-11 -7 -21 -12 -21 -12 -1 0 -5 -11 -9 -25 -6 -20 -5
-23 6 -12 7 6 21 12 31 12 13 0 18 8 18 25 0 14 -1 25 -2 24 -2 0 -12 -6 -23
-12z"/>
<path d="M1922 3340 c0 -14 2 -19 5 -12 2 6 2 18 0 25 -3 6 -5 1 -5 -13z"/>
<path d="M1821 3054 c0 -11 3 -14 6 -6 3 7 2 16 -1 19 -3 4 -6 -2 -5 -13z"/>
</g>
</svg>
